<svg xmlns="http://www.w3.org/2000/svg"  viewBox="0 0 64 64" width="64px" height="64px"><linearGradient id="fPpHYq6Qf7FSImVn~sAQBa" x1="32" x2="32" y1="6" y2="57.869" gradientUnits="userSpaceOnUse" spreadMethod="reflect"><stop offset="0" stop-color="#1a6dff"/><stop offset="1" stop-color="#c822ff"/></linearGradient><path fill="url(#fPpHYq6Qf7FSImVn~sAQBa)" d="M32,58C17.663,58,6,46.336,6,32S17.663,6,32,6s26,11.664,26,26S46.337,58,32,58z M32,8 C18.767,8,8,18.767,8,32s10.767,24,24,24s24-10.767,24-24S45.233,8,32,8z"/><linearGradient id="fPpHYq6Qf7FSImVn~sAQBb" x1="32" x2="32" y1="6.417" y2="57.682" gradientUnits="userSpaceOnUse" spreadMethod="reflect"><stop offset="0" stop-color="#1a6dff"/><stop offset="1" stop-color="#c822ff"/></linearGradient><path fill="url(#fPpHYq6Qf7FSImVn~sAQBb)" d="M32,12c-11.028,0-20,8.972-20,20c0,11.589,8.411,20,20,20s20-8.411,20-20 C52,20.972,43.028,12,32,12z M49.279,27h-6.396l-0.007,0.993c0,0.095-0.147,9.578-6.739,14.245 c-2.324,1.645-5.548,1.955-8.746,1.672c3.261-0.354,6.517-1.621,8.913-4.644c5.136-6.478,3.544-12.813,2.784-14.926l5.774-4.909 C46.908,21.525,48.442,24.114,49.279,27z M32,14c4.313,0,8.274,1.528,11.378,4.067l-6.724,5.717l0.334,0.695 c0.032,0.066,3.139,6.745-2.252,13.545c-5.435,6.856-16.817,2.912-18.981,2.079C14.633,37.703,14,34.974,14,32 C14,22.075,22.075,14,32,14z M32,50c-4.214,0-7.948-1.253-10.918-3.414c2.478,1.039,5.694,1.851,9.73,1.851 c8.157,0,12.952-5.666,14.537-7.92l1.969,1.313C44.231,46.85,38.716,50,32,50z M48.265,40.059l-3.537-2.357l-0.533,0.925 c-0.045,0.078-4.599,7.81-13.383,7.81c-2.751,0-5.077-0.421-7.028-1.024c1.785,0.347,3.689,0.588,5.572,0.588 c2.887,0,5.712-0.558,7.935-2.131c6.158-4.36,7.316-12.114,7.533-14.87h4.904C49.894,29.978,50,30.976,50,32 C50,34.956,49.374,37.669,48.265,40.059z"/><linearGradient id="fPpHYq6Qf7FSImVn~sAQBc" x1="34.2" x2="34.2" y1="40.52" y2="50" gradientUnits="userSpaceOnUse" spreadMethod="reflect"><stop offset="0" stop-color="#6dc7ff"/><stop offset="1" stop-color="#e6abff"/></linearGradient><path fill="url(#fPpHYq6Qf7FSImVn~sAQBc)" d="M47.32,41.83C44.23,46.85,38.72,50,32,50c-4.21,0-7.95-1.25-10.92-3.41 c2.48,1.04,5.7,1.85,9.73,1.85c8.16,0,12.95-5.67,14.54-7.92L47.32,41.83z"/><linearGradient id="fPpHYq6Qf7FSImVn~sAQBd" x1="36.89" x2="36.89" y1="29" y2="46.44" gradientUnits="userSpaceOnUse" spreadMethod="reflect"><stop offset="0" stop-color="#6dc7ff"/><stop offset="1" stop-color="#e6abff"/></linearGradient><path fill="url(#fPpHYq6Qf7FSImVn~sAQBd)" d="M50,32c0,2.96-0.63,5.67-1.73,8.06l-3.54-2.36l-0.53,0.93c-0.05,0.08-4.6,7.81-13.39,7.81 c-2.75,0-5.07-0.42-7.03-1.03c1.79,0.35,3.69,0.59,5.58,0.59c2.88,0,5.71-0.56,7.93-2.13c6.16-4.36,7.32-12.11,7.53-14.87h4.91 C49.89,29.98,50,30.98,50,32z"/><linearGradient id="fPpHYq6Qf7FSImVn~sAQBe" x1="38.335" x2="38.335" y1="19.43" y2="44.002" gradientUnits="userSpaceOnUse" spreadMethod="reflect"><stop offset="0" stop-color="#6dc7ff"/><stop offset="1" stop-color="#e6abff"/></linearGradient><path fill="url(#fPpHYq6Qf7FSImVn~sAQBe)" d="M49.28,27h-6.4v0.99c-0.01,0.1-0.15,9.58-6.74,14.25c-2.33,1.64-5.55,1.95-8.75,1.67 c3.26-0.35,6.52-1.62,8.91-4.64c5.14-6.48,3.55-12.82,2.79-14.93l5.77-4.91C46.91,21.52,48.44,24.11,49.28,27z"/></svg>