<svg xmlns="http://www.w3.org/2000/svg" xmlns:xlink="http://www.w3.org/1999/xlink" version="1.1" width="256" height="256" viewBox="0 0 256 256" xml:space="preserve">
<desc>Created with Fabric.js 1.7.22</desc>
<defs>
</defs>
<g transform="translate(128 128) scale(0.72 0.72)" style="">
	<g style="stroke: none; stroke-width: 0; stroke-dasharray: none; stroke-linecap: butt; stroke-linejoin: miter; stroke-miterlimit: 10; fill: none; fill-rule: nonzero; opacity: 1;" transform="translate(-175.05 -175.05000000000004) scale(3.89 3.89)" >
	<path d="M 45 90 C 20.187 90 0 69.814 0 45 C 0 20.187 20.187 0 45 0 c 24.814 0 45 20.187 45 45 C 90 69.814 69.814 90 45 90 z M 45 5.625 C 23.289 5.625 5.625 23.289 5.625 45 c 0 21.712 17.664 39.375 39.375 39.375 c 21.712 0 39.375 -17.663 39.375 -39.375 C 84.375 23.289 66.712 5.625 45 5.625 z" style="stroke: none; stroke-width: 1; stroke-dasharray: none; stroke-linecap: butt; stroke-linejoin: miter; stroke-miterlimit: 10; fill: rgb(0,0,0); fill-rule: nonzero; opacity: 1;" transform=" matrix(1 0 0 1 0 0) " stroke-linecap="round" />
</g>
	<g style="stroke: none; stroke-width: 0; stroke-dasharray: none; stroke-linecap: butt; stroke-linejoin: miter; stroke-miterlimit: 10; fill: none; fill-rule: nonzero; opacity: 1;" transform="translate(-153.06314649404638 -41.0131464940464) rotate(-30) scale(2.49 2.49)" >
	<path d="M 90 16.976 v 70.745 C 90 88.98 88.98 90 87.721 90 H 2.279 C 1.02 90 0 88.98 0 87.721 V 2.279 C 0 1.02 1.02 0 2.279 0 h 70.745 c 0.604 0 1.184 0.24 1.612 0.668 l 14.697 14.697 C 89.76 15.792 90 16.371 90 16.976 z" style="stroke: none; stroke-width: 1; stroke-dasharray: none; stroke-linecap: butt; stroke-linejoin: miter; stroke-miterlimit: 10; fill: rgb(224,60,60); fill-rule: nonzero; opacity: 1;" transform=" matrix(1 0 0 1 0 0) " stroke-linecap="round" />
	<path d="M 68.58 48.526 H 21.42 c -2.49 0 -4.509 2.019 -4.509 4.509 V 90 h 56.178 V 53.035 C 73.089 50.545 71.07 48.526 68.58 48.526 z" style="stroke: none; stroke-width: 1; stroke-dasharray: none; stroke-linecap: butt; stroke-linejoin: miter; stroke-miterlimit: 10; fill: rgb(108,162,211); fill-rule: nonzero; opacity: 1;" transform=" matrix(1 0 0 1 0 0) " stroke-linecap="round" />
	<path d="M 56.522 19.817 H 33.478 c -2.343 0 -4.242 -1.899 -4.242 -4.242 V 0 h 31.529 v 15.575 C 60.764 17.918 58.865 19.817 56.522 19.817 z" style="stroke: none; stroke-width: 1; stroke-dasharray: none; stroke-linecap: butt; stroke-linejoin: miter; stroke-miterlimit: 10; fill: rgb(108,162,211); fill-rule: nonzero; opacity: 1;" transform=" matrix(1 0 0 1 0 0) " stroke-linecap="round" />
	<path d="M 42.007 80.122 c -0.844 0 -1.65 -0.355 -2.219 -0.981 l -6.429 -7.068 c -1.115 -1.226 -1.025 -3.123 0.201 -4.238 c 1.226 -1.113 3.124 -1.024 4.238 0.201 l 4.063 4.468 L 52.079 59.73 c 1.036 -1.293 2.925 -1.503 4.217 -0.469 c 1.294 1.035 1.504 2.923 0.469 4.217 L 44.35 78.996 c -0.549 0.686 -1.37 1.097 -2.248 1.124 C 42.071 80.121 42.039 80.122 42.007 80.122 z" style="stroke: none; stroke-width: 1; stroke-dasharray: none; stroke-linecap: butt; stroke-linejoin: miter; stroke-miterlimit: 10; fill: rgb(242,166,171); fill-rule: nonzero; opacity: 1;" transform=" matrix(1 0 0 1 0 0) " stroke-linecap="round" />
</g>
</g>
</svg>